<svg width="64" height="64" viewBox="0 0 64 64" fill="none" xmlns="http://www.w3.org/2000/svg">
<path d="M11.2879 10.5227C11.2197 10.5227 11.2197 10.5909 11.1515 10.5909H9.37882H7.40155C6.58336 10.5909 5.96973 11.2045 5.96973 12.0227C5.96973 12.8409 6.58336 13.5227 7.40155 13.5227H8.697L10.1288 14.8863L11.9697 18.5682L23.697 53.8182C23.7652 54.3636 24.2425 54.8409 24.7879 54.9772C24.8561 54.9772 24.8561 55.0454 24.9243 55.0454H25.0606H25.1288H25.197H25.3334H25.4697C25.5379 55.0454 25.5379 54.9772 25.6061 54.9772C26.0834 54.8409 26.5606 54.2954 26.6288 53.8182L32.0152 37.4545L37.5379 53.8182C37.6061 54.3636 38.0152 54.8409 38.5606 54.9772C38.6288 54.9772 38.6288 55.0454 38.697 55.0454H38.9015H39.0379H39.1061H39.2425C39.3106 55.0454 39.3106 54.9772 39.3788 54.9772C39.8561 54.8409 40.4015 54.2954 40.4697 53.8182L52.197 18.5682L54.0379 14.9545L55.4015 13.5227H56.697C57.5152 13.5227 58.197 12.8409 58.197 12.0227C58.197 11.2045 57.5152 10.5909 56.697 10.5909H54.7879H53.0152C52.947 10.5909 52.8788 10.5227 52.8106 10.5227C52.7425 10.5227 52.6743 10.5909 52.6061 10.5909H50.8334H48.8561C48.0379 10.5909 47.3561 11.2045 47.3561 12.0227C47.3561 12.8409 48.0379 13.5227 48.8561 13.5227H50.2197L50.5606 14L49.4697 17.4773C49.4697 17.5454 49.4015 17.6136 49.4015 17.6818L39.6515 46.8636L34.4697 30.3636L38.3561 18.5682L40.197 14.9545L41.5606 13.5227H42.9243C43.7425 13.5227 44.3561 12.8409 44.3561 12.0227C44.3561 11.2045 43.7425 10.5909 42.9243 10.5909H40.947H39.2425C39.1743 10.5909 39.0379 10.5227 38.9697 10.5227C38.9015 10.5227 38.7652 10.5909 38.697 10.5909H36.9925H35.0152C34.197 10.5909 33.5152 11.2045 33.5152 12.0227C33.5152 12.8409 34.197 13.5227 35.0152 13.5227H36.3788L36.7879 14L35.6288 17.4773C35.6288 17.5454 35.5606 17.6136 35.5606 17.6818L32.9697 25.5227L29.2879 14L29.697 13.5227H31.0606C31.8788 13.5227 32.5606 12.8409 32.5606 12.0227C32.5606 11.2045 31.8788 10.5909 31.0606 10.5909H29.1515H27.3788H27.1061H26.9015H25.4015C25.3334 10.5909 25.197 10.5227 25.1288 10.5227C25.0606 10.5227 24.9925 10.5909 24.9243 10.5909H23.2197H21.2425C20.4243 10.5909 19.7425 11.2045 19.7425 12.0227C19.7425 12.8409 20.4243 13.5227 21.2425 13.5227H22.6061L23.9697 14.8863L25.7425 18.5682L30.447 32.8182L25.8106 46.8636L15.447 14L15.9243 13.5227H17.2879C18.1061 13.5227 18.7197 12.8409 18.7197 12.0227C18.7197 11.2045 18.1061 10.5909 17.2879 10.5909H15.3106H13.5379H13.3334H13.0606H11.5606C11.4925 10.5909 11.4243 10.5227 11.3561 10.5227H11.2879Z" fill="black"/>
</svg>
